HIERARCHY
ROOT Hips
{
	OFFSET 0.000000 0.000000 0.000000
	CHANNELS 6 Xposition Yposition Zposition Zrotation Yrotation Xrotation 
	JOINT LHipJoint
	{
		OFFSET 0.000000 0.000000 0.000000
		CHANNELS 3 Zrotation Yrotation Xrotation
		JOINT LeftUpLeg
		{
			OFFSET 1.363060 -1.794630 0.839290
			CHANNELS 3 Zrotation Yrotation Xrotation
			JOINT LeftLeg
			{
				OFFSET 2.448110 -6.726130 0.000000
				CHANNELS 3 Zrotation Yrotation Xrotation
				JOINT LeftFoot
				{
					OFFSET 2.562200 -7.039590 0.000000
					CHANNELS 3 Zrotation Yrotation Xrotation
					JOINT LeftToeBase
					{
						OFFSET 0.157640 -0.433110 2.322550
						CHANNELS 3 Zrotation Yrotation Xrotation
						End Site
						{
							OFFSET 0.000000 0.000000 0.000000
						}
					}
				}
			}
		}
	}
	JOINT RHipJoint
	{
		OFFSET 0.000000 0.000000 0.000000
		CHANNELS 3 Zrotation Yrotation Xrotation
		JOINT RightUpLeg
		{
			OFFSET -1.305520 -1.794630 0.839290
			CHANNELS 3 Zrotation Yrotation Xrotation
			JOINT RightLeg
			{
				OFFSET -2.542530 -6.985550 0.000000
				CHANNELS 3 Zrotation Yrotation Xrotation
				JOINT RightFoot
				{
					OFFSET -2.568260 -7.056230 0.000000
					CHANNELS 3 Zrotation Yrotation Xrotation
					JOINT RightToeBase
					{
						OFFSET -0.164730 -0.452590 2.363150
						CHANNELS 3 Zrotation Yrotation Xrotation
						End Site
						{
							OFFSET 0.000000 0.000000 0.000000
						}
					}
				}
			}
		}
	}
	JOINT LowerBack
	{
		OFFSET 0.000000 0.000000 0.000000
		CHANNELS 3 Zrotation Yrotation Xrotation
		JOINT Spine
		{
			OFFSET 0.028270 2.035590 -0.193380
			CHANNELS 3 Zrotation Yrotation Xrotation
			JOINT Spine1
			{
				OFFSET 0.056720 2.048850 -0.042750
				CHANNELS 3 Zrotation Yrotation Xrotation
				JOINT Neck
				{
					OFFSET 0.000000 0.000000 0.000000
					CHANNELS 3 Zrotation Yrotation Xrotation
					JOINT Neck1
					{
						OFFSET -0.054170 1.746240 0.172020
						CHANNELS 3 Zrotation Yrotation Xrotation
						JOINT Head
						{
							OFFSET 0.104070 1.761360 -0.123970
							CHANNELS 3 Zrotation Yrotation Xrotation
							End Site
							{
								OFFSET 0.000000 0.000000 0.000000
							}
						}
					}
				}
				JOINT LeftShoulder
				{
					OFFSET 0.000000 0.000000 0.000000
					CHANNELS 3 Zrotation Yrotation Xrotation
					JOINT LeftArm
					{
						OFFSET 3.362410 1.200890 -0.311210
						CHANNELS 3 Zrotation Yrotation Xrotation
						JOINT LeftForeArm
						{
							OFFSET 4.983000 -0.000000 -0.000000
							CHANNELS 3 Zrotation Yrotation Xrotation
							JOINT LeftHand
							{
								OFFSET 3.483560 -0.000000 -0.000000
								CHANNELS 3 Zrotation Yrotation Xrotation
								JOINT LeftFingerBase
								{
									OFFSET 0.000000 0.000000 0.000000
									CHANNELS 3 Zrotation Yrotation Xrotation
									JOINT LeftHandIndex1
									{
										OFFSET 0.715260 -0.000000 -0.000000
										CHANNELS 3 Zrotation Yrotation Xrotation
										End Site
										{
											OFFSET 0.000000 0.000000 0.000000
										}
									}
								}
								JOINT LThumb
								{
									OFFSET 0.000000 0.000000 0.000000
									CHANNELS 3 Zrotation Yrotation Xrotation
									End Site
									{
										OFFSET 0.000000 0.000000 0.000000
									}
								}
							}
						}
					}
				}
				JOINT RightShoulder
				{
					OFFSET 0.000000 0.000000 0.000000
					CHANNELS 3 Zrotation Yrotation Xrotation
					JOINT RightArm
					{
						OFFSET -3.136600 1.374050 -0.404650
						CHANNELS 3 Zrotation Yrotation Xrotation
						JOINT RightForeArm
						{
							OFFSET -5.241900 -0.000000 -0.000000
							CHANNELS 3 Zrotation Yrotation Xrotation
							JOINT RightHand
							{
								OFFSET -3.444170 -0.000000 -0.000000
								CHANNELS 3 Zrotation Yrotation Xrotation
								JOINT RightFingerBase
								{
									OFFSET 0.000000 0.000000 0.000000
									CHANNELS 3 Zrotation Yrotation Xrotation
									JOINT RightHandIndex1
									{
										OFFSET -0.622530 -0.000000 -0.000000
										CHANNELS 3 Zrotation Yrotation Xrotation
										End Site
										{
											OFFSET 0.000000 0.000000 0.000000
										}
									}
								}
								JOINT RThumb
								{
									OFFSET 0.000000 0.000000 0.000000
									CHANNELS 3 Zrotation Yrotation Xrotation
									End Site
									{
										OFFSET 0.000000 0.000000 0.000000
									}
								}
							}
						}
					}
				}
			}
		}
	}
}
MOTION
Frames: 9
Frame Time: 0.008333
7.656951 17.327779 -8.667590 -9.375225 -55.153467 13.123346 -3.059941 -1.739892 0.137243 -15.569454 1.964774 -12.431535 1.670116 11.280952 31.297974 -2.474556 13.123433 -13.503358 0.000400 -0.129400 -0.355700 2.216087 2.256260 -1.488743 18.274743 -0.802321 -26.947912 -5.548179 -15.357677 45.290657 4.387806 -16.318906 -9.386315 -0.145700 -2.459500 6.777500 0.239296 1.759278 10.990541 2.014923 2.715811 -3.085517 3.223335 1.096612 -2.925591 -5.944050 3.719877 -15.988509 4.643802 5.974798 8.932450 3.533600 2.635300 8.189400 -0.577529 -2.628121 0.542407 -78.628953 7.246343 57.249411 78.258389 -60.060991 -43.755415 -0.103418 1.362702 -15.091558 22.558575 14.565568 5.326500 -7.125000 0.000000 0.000000 -4.619800 44.080400 0.105100 1.798444 2.230985 -0.254996 71.178922 -8.843430 51.026567 -63.619244 59.052184 -33.679746 -0.427880 -1.112766 -34.670428 -25.914600 10.536396 -5.244000 7.125000 0.000000 0.000000 1.540200 -17.462700 1.007400 
7.638498 17.326867 -8.701961 -9.706629 -55.952581 13.495621 -3.049243 -1.743497 0.133214 -15.439304 2.395082 -12.663437 1.700669 11.315193 31.412138 -2.552929 13.429521 -13.641362 0.001000 -0.207100 -0.569000 2.251957 2.260621 -1.470936 18.494169 -0.697653 -26.651277 -5.350754 -15.203669 44.666486 4.143712 -15.594820 -9.348923 -0.123500 -2.265200 6.239200 0.166147 1.892647 10.856016 2.008849 2.881965 -3.108813 3.237772 1.183172 -2.953194 -5.892201 3.891081 -16.011345 4.579189 6.195915 8.916196 3.511400 2.736100 8.177500 -0.579592 -2.634538 0.535624 -78.567335 7.300368 57.768299 78.699379 -60.079090 -44.038215 -0.143698 1.345600 -15.400408 22.230845 14.824584 5.354100 -7.125000 0.000000 0.000000 -4.933100 44.330400 0.081700 1.821314 2.225857 -0.258176 70.979979 -8.605777 52.370892 -65.023495 59.325105 -34.567013 -0.422133 -1.107069 -35.188280 -25.337983 10.425115 -5.050600 7.125000 0.000000 0.000000 1.935900 -17.661200 1.258000 
7.618626 17.326562 -8.735115 -10.040881 -56.718068 13.882892 -3.038606 -1.747082 0.128196 -15.315444 2.781891 -12.879160 1.729009 11.346842 31.518138 -2.637568 13.758978 -13.787171 0.001800 -0.272000 -0.747200 2.290205 2.266288 -1.454765 18.712485 -0.601462 -26.385448 -5.144596 -15.036476 43.993679 3.932600 -14.969803 -9.329342 -0.121900 -2.250400 6.198100 0.116605 2.005393 10.695096 1.998033 3.022662 -3.129322 3.225617 1.256672 -2.955995 -5.827991 4.066698 -16.034886 4.518341 6.419591 8.895657 3.489600 2.839700 8.162400 -0.582156 -2.639093 0.529531 -78.495329 7.321310 58.274196 79.121773 -60.093708 -44.313918 -0.189070 1.330309 -15.776493 21.952386 15.159535 5.420500 -7.125000 0.000000 0.000000 -5.214300 44.661200 0.043700 1.840303 2.219871 -0.260497 70.804808 -8.322022 53.691803 -66.406613 59.568828 -35.434831 -0.418803 -1.098115 -35.646886 -24.690401 10.324230 -4.848100 7.125000 0.000000 0.000000 2.382500 -17.856400 1.538500 
7.597943 17.326562 -8.766748 -10.374911 -57.417273 14.281975 -3.027876 -1.750919 0.121747 -15.192680 3.100317 -13.075351 1.755217 11.376145 31.616671 -2.727037 14.105803 -13.935485 0.003000 -0.352200 -0.967700 2.329634 2.272944 -1.438602 18.940631 -0.560408 -26.169678 -4.937608 -14.862116 43.298762 3.761321 -14.464107 -9.334258 -0.133700 -2.357100 6.493600 0.119208 2.083794 10.512496 1.979878 3.122347 -3.149585 3.163380 1.309144 -2.938494 -5.746679 4.248825 -16.059498 4.464601 6.647175 8.875074 3.470300 2.947300 8.146300 -0.586226 -2.641756 0.523809 -78.405876 7.321986 58.757358 79.536737 -60.104030 -44.591329 -0.239848 1.312582 -16.221955 21.664027 15.547853 5.502500 -7.125000 0.000000 0.000000 -5.514200 45.046400 -0.006300 1.853755 2.213454 -0.262111 70.667089 -8.000960 54.983271 -67.765308 59.785313 -36.280338 -0.419440 -1.086384 -35.998074 -23.986586 10.241306 -4.643700 7.125000 0.000000 0.000000 2.871100 -18.037600 1.843300 
7.576753 17.327171 -8.796556 -10.691385 -58.032279 14.673911 -3.017196 -1.755438 0.113008 -15.073388 3.333604 -13.249352 1.779939 11.404964 31.713370 -2.817872 14.457360 -14.085373 0.004300 -0.425200 -1.168300 2.368527 2.280395 -1.421052 19.180038 -0.620969 -26.012768 -4.735626 -14.685435 42.603110 3.621933 -14.053113 -9.348626 -0.153900 -2.528200 6.968000 0.174815 2.121671 10.311167 1.954895 3.172825 -3.169047 3.051961 1.336319 -2.900000 -5.649920 4.438290 -16.080256 4.415625 6.880144 8.853272 3.452500 3.059100 8.127200 -0.591142 -2.642426 0.518697 -78.314902 7.308528 59.209075 79.957439 -60.110662 -44.880272 -0.293808 1.292738 -16.749399 21.379560 15.954136 5.589200 -7.125000 0.000000 0.000000 -5.816800 45.449700 -0.064800 1.861408 2.206314 -0.262799 70.570662 -7.647478 56.236825 -69.093536 59.975834 -37.101933 -0.425356 -1.073134 -36.212927 -23.267707 10.190973 -4.452600 7.125000 0.000000 0.000000 3.373900 -18.184100 2.156300 
7.555157 17.328590 -8.824438 -10.992266 -58.566475 15.053999 -3.007115 -1.759850 0.103076 -14.950572 3.484641 -13.398171 1.803234 11.433228 31.808132 -2.904795 14.795012 -14.238803 0.005400 -0.476000 -1.308000 2.405212 2.288446 -1.401350 19.438488 -0.794042 -25.912412 -4.545155 -14.512830 41.932460 3.504812 -13.706771 -9.351356 -0.177500 -2.713800 7.483000 0.259760 2.129481 10.111865 1.932986 3.186285 -3.192735 2.934224 1.344817 -2.869436 -5.559702 4.629902 -16.089532 4.367503 7.117021 8.838444 3.436900 3.172000 8.109200 -0.595663 -2.643604 0.513286 -78.234871 7.280244 59.660861 80.394480 -60.114588 -45.182237 -0.352961 1.269354 -17.400530 21.079082 16.372230 5.672700 -7.125000 0.000000 0.000000 -6.138700 45.862400 -0.131200 1.868147 2.199548 -0.264065 70.484587 -7.293992 57.439678 -70.390790 60.139584 -37.908598 -0.437209 -1.059254 -36.268228 -22.593834 10.178748 -4.289100 7.125000 0.000000 0.000000 3.849000 -18.283600 2.452700 
7.532750 17.331429 -8.851205 -11.275176 -59.042632 15.416902 -2.997361 -1.763989 0.092822 -14.822210 3.583070 -13.529449 1.824684 11.460146 31.899622 -2.976243 15.077848 -14.396670 0.005300 -0.470600 -1.293000 2.438967 2.296808 -1.379971 19.712092 -1.057481 -25.855828 -4.370255 -14.349395 41.305742 3.396120 -13.383782 -9.327812 -0.202900 -2.900500 8.001900 0.356689 2.115810 9.918275 1.915119 3.172219 -3.220109 2.821692 1.339607 -2.849554 -5.476491 4.824351 -16.087122 4.320468 7.358909 8.830391 3.423100 3.286300 8.092300 -0.597581 -2.645521 0.507812 -78.214922 7.258414 60.064885 80.849821 -60.117112 -45.497578 -0.415320 1.241973 -18.121993 20.735374 16.776248 5.735500 -7.125000 0.000000 0.000000 -6.500400 46.254900 -0.202200 1.873858 2.193285 -0.265917 70.409576 -6.942230 58.592354 -71.646515 60.277298 -38.696513 -0.454874 -1.047690 -36.145537 -22.037020 10.208826 -4.169500 7.125000 0.000000 0.000000 4.246100 -18.323000 2.703400 
7.509532 17.334167 -8.877971 -11.556901 -59.534356 15.773066 -2.987092 -1.767014 0.084788 -14.701809 3.713942 -13.655728 1.845425 11.484673 31.984708 -3.044475 15.347738 -14.549378 0.005300 -0.470800 -1.293800 2.469998 2.305100 -1.359734 19.988504 -1.328805 -25.816318 -4.214280 -14.200549 40.740722 3.287744 -13.059476 -9.259301 -0.224600 -3.050500 8.419400 0.435078 2.108743 9.737839 1.899323 3.165461 -3.248915 2.725046 1.338087 -2.843035 -5.398379 5.021164 -16.073146 4.274229 7.604632 8.829131 3.410200 3.401700 8.076900 -0.597770 -2.648624 0.502313 -78.227379 7.231043 60.442906 81.317378 -60.116695 -45.819713 -0.481105 1.207908 -18.906032 20.316532 17.165818 5.768300 -7.125000 0.000000 0.000000 -6.931400 46.624600 -0.279200 1.879391 2.187659 -0.268307 70.349358 -6.598831 59.689356 -72.864837 60.391168 -39.469993 -0.478569 -1.038602 -35.843959 -21.588610 10.286454 -4.091800 7.125000 0.000000 0.000000 4.571300 -18.298900 2.914200 
7.485503 17.336194 -8.905853 -11.862338 -60.074277 16.147109 -2.975241 -1.768301 0.080411 -14.584749 3.929650 -13.794023 1.866356 11.506252 32.062178 -3.109866 15.602710 -14.684186 0.005900 -0.496400 -1.363900 2.499128 2.312859 -1.342471 20.260243 -1.530191 -25.768232 -4.078178 -14.069531 40.246379 3.174703 -12.720731 -9.157962 -0.241000 -3.159500 8.723300 0.489419 2.124492 9.569014 1.884352 3.186907 -3.279400 2.644855 1.351008 -2.851952 -5.321885 5.216117 -16.046647 4.230294 7.847504 8.834986 3.397500 3.515200 8.063800 -0.596207 -2.652980 0.496376 -78.267720 7.202134 60.814767 81.794663 -60.113829 -46.148189 -0.545621 1.171688 -19.722426 19.896925 17.521966 5.783900 -7.125000 0.000000 0.000000 -7.361500 46.957500 -0.357500 1.884526 2.182898 -0.271301 70.311692 -6.268768 60.720794 -74.047915 60.482947 -40.232641 -0.506537 -1.033774 -35.374895 -21.279664 10.396424 -4.056700 7.125000 0.000000 0.000000 4.802000 -18.222800 3.070300 
